<?xml version="1.0" encoding="UTF-8" standalone="no"?>
<!-- Created with Inkscape (http://www.inkscape.org/) -->

<svg
   xmlns:dc="http://purl.org/dc/elements/1.1/"
   xmlns:cc="http://creativecommons.org/ns#"
   xmlns:rdf="http://www.w3.org/1999/02/22-rdf-syntax-ns#"
   xmlns:svg="http://www.w3.org/2000/svg"
   xmlns="http://www.w3.org/2000/svg"
   xmlns:xlink="http://www.w3.org/1999/xlink"
   xmlns:sodipodi="http://sodipodi.sourceforge.net/DTD/sodipodi-0.dtd"
   xmlns:inkscape="http://www.inkscape.org/namespaces/inkscape"
   width="440"
   height="280"
   id="svg3784"
   version="1.1"
   inkscape:version="0.48.4 r9939"
   sodipodi:docname="small.svg">
  <defs
     id="defs3786">
    <linearGradient
       id="linearGradient4759">
      <stop
         style="stop-color:#62ad94;stop-opacity:1;"
         offset="0"
         id="stop4761" />
      <stop
         style="stop-color:#fefde0;stop-opacity:0;"
         offset="1"
         id="stop4763" />
    </linearGradient>
    <marker
       inkscape:stockid="Arrow1Mend"
       orient="auto"
       refY="0"
       refX="0"
       id="Arrow1Mend"
       style="overflow:visible">
      <path
         inkscape:connector-curvature="0"
         id="path3995"
         d="M 0,0 5,-5 -12.5,0 5,5 0,0 z"
         style="fill-rule:evenodd;stroke:#000000;stroke-width:1pt"
         transform="matrix(-0.4,0,0,-0.4,-4,0)" />
    </marker>
    <filter
       id="filter3941"
       inkscape:label="Smooth edges"
       inkscape:menu="Morphology"
       inkscape:menu-tooltip="Smooth the outside of shapes and pictures without altering their contents"
       color-interpolation-filters="sRGB">
      <feGaussianBlur
         id="feGaussianBlur3943"
         stdDeviation="1 1"
         result="result1" />
      <feComposite
         k3="0"
         k1="0"
         id="feComposite3945"
         in2="SourceGraphic"
         operator="arithmetic"
         k2="2"
         k4="-1"
         in="result1"
         result="result2" />
      <feColorMatrix
         id="feColorMatrix3947"
         values="0 0 0 0 0 0 1 0 0 0 0 0 1 0 0 0 0 0 8 -6 "
         result="result3"
         type="matrix" />
      <feComposite
         id="feComposite3949"
         in2="result3"
         in="SourceGraphic"
         operator="in" />
    </filter>
    <filter
       id="filter3118"
       inkscape:label="Smooth edges"
       inkscape:menu="Morphology"
       inkscape:menu-tooltip="Smooth the outside of shapes and pictures without altering their contents"
       color-interpolation-filters="sRGB">
      <feGaussianBlur
         id="feGaussianBlur3120"
         stdDeviation="1 1"
         result="result1" />
      <feComposite
         k3="0"
         k1="0"
         id="feComposite3122"
         in2="SourceGraphic"
         operator="arithmetic"
         k2="2"
         k4="-1"
         in="result1"
         result="result2" />
      <feColorMatrix
         id="feColorMatrix3124"
         values="0 0 0 0 0 0 1 0 0 0 0 0 1 0 0 0 0 0 8 -6 "
         result="result3"
         type="matrix" />
      <feComposite
         id="feComposite3126"
         in2="result3"
         in="SourceGraphic"
         operator="in" />
    </filter>
    <filter
       id="filter3128"
       inkscape:label="Smooth edges"
       inkscape:menu="Morphology"
       inkscape:menu-tooltip="Smooth the outside of shapes and pictures without altering their contents"
       color-interpolation-filters="sRGB">
      <feGaussianBlur
         id="feGaussianBlur3130"
         stdDeviation="1 1"
         result="result1" />
      <feComposite
         k3="0"
         k1="0"
         id="feComposite3132"
         in2="SourceGraphic"
         operator="arithmetic"
         k2="2"
         k4="-1"
         in="result1"
         result="result2" />
      <feColorMatrix
         id="feColorMatrix3134"
         values="0 0 0 0 0 0 1 0 0 0 0 0 1 0 0 0 0 0 8 -6 "
         result="result3"
         type="matrix" />
      <feComposite
         id="feComposite3136"
         in2="result3"
         in="SourceGraphic"
         operator="in" />
    </filter>
    <filter
       id="filter3941-1"
       inkscape:label="Smooth edges"
       inkscape:menu="Morphology"
       inkscape:menu-tooltip="Smooth the outside of shapes and pictures without altering their contents"
       color-interpolation-filters="sRGB">
      <feGaussianBlur
         id="feGaussianBlur3943-7"
         stdDeviation="1 1"
         result="result1" />
      <feComposite
         k3="0"
         k1="0"
         id="feComposite3945-7"
         in2="SourceGraphic"
         operator="arithmetic"
         k2="2"
         k4="-1"
         in="result1"
         result="result2" />
      <feColorMatrix
         id="feColorMatrix3947-4"
         values="0 0 0 0 0 0 1 0 0 0 0 0 1 0 0 0 0 0 8 -6 "
         result="result3"
         type="matrix" />
      <feComposite
         id="feComposite3949-2"
         in2="result3"
         in="SourceGraphic"
         operator="in" />
    </filter>
    <filter
       id="filter4176"
       inkscape:label="Smooth edges"
       inkscape:menu="Morphology"
       inkscape:menu-tooltip="Smooth the outside of shapes and pictures without altering their contents"
       color-interpolation-filters="sRGB">
      <feGaussianBlur
         id="feGaussianBlur4178"
         stdDeviation="1 1"
         result="result1" />
      <feComposite
         k3="0"
         k1="0"
         id="feComposite4180"
         in2="SourceGraphic"
         operator="arithmetic"
         k2="2"
         k4="-1"
         in="result1"
         result="result2" />
      <feColorMatrix
         id="feColorMatrix4182"
         values="0 0 0 0 0 0 1 0 0 0 0 0 1 0 0 0 0 0 8 -6 "
         result="result3"
         type="matrix" />
      <feComposite
         id="feComposite4184"
         in2="result3"
         in="SourceGraphic"
         operator="in" />
    </filter>
    <filter
       id="filter4186"
       inkscape:label="Smooth edges"
       inkscape:menu="Morphology"
       inkscape:menu-tooltip="Smooth the outside of shapes and pictures without altering their contents"
       color-interpolation-filters="sRGB">
      <feGaussianBlur
         id="feGaussianBlur4188"
         stdDeviation="1 1"
         result="result1" />
      <feComposite
         k3="0"
         k1="0"
         id="feComposite4190"
         in2="SourceGraphic"
         operator="arithmetic"
         k2="2"
         k4="-1"
         in="result1"
         result="result2" />
      <feColorMatrix
         id="feColorMatrix4192"
         values="0 0 0 0 0 0 1 0 0 0 0 0 1 0 0 0 0 0 8 -6 "
         result="result3"
         type="matrix" />
      <feComposite
         id="feComposite4194"
         in2="result3"
         in="SourceGraphic"
         operator="in" />
    </filter>
    <linearGradient
       inkscape:collect="always"
       xlink:href="#linearGradient4759"
       id="linearGradient4767"
       x1="-12"
       y1="143.5"
       x2="459"
       y2="143.5"
       gradientUnits="userSpaceOnUse" />
  </defs>
  <sodipodi:namedview
     id="base"
     pagecolor="#ffffff"
     bordercolor="#666666"
     borderopacity="1.0"
     inkscape:pageopacity="0.0"
     inkscape:pageshadow="2"
     inkscape:zoom="1"
     inkscape:cx="100.70741"
     inkscape:cy="146.21612"
     inkscape:document-units="px"
     inkscape:current-layer="layer1"
     showgrid="false"
     inkscape:window-width="1366"
     inkscape:window-height="702"
     inkscape:window-x="0"
     inkscape:window-y="27"
     inkscape:window-maximized="1" />
  <metadata
     id="metadata3789">
    <rdf:RDF>
      <cc:Work
         rdf:about="">
        <dc:format>image/svg+xml</dc:format>
        <dc:type
           rdf:resource="http://purl.org/dc/dcmitype/StillImage" />
        <dc:title />
      </cc:Work>
    </rdf:RDF>
  </metadata>
  <g
     inkscape:label="Livello 1"
     inkscape:groupmode="layer"
     id="layer1"
     transform="translate(0,-772.36218)">
    <rect
       style="fill:url(#linearGradient4767);stroke-width:0.60000001999999997;stroke-miterlimit:4;stroke-dasharray:none;fill-opacity:1"
       id="rect4243"
       width="471"
       height="299"
       x="-12"
       y="-6"
       transform="translate(0,772.36218)" />
    <path
       id="path3793"
       d="m 226.81093,857.47101 c -7.21211,0 -13.01686,5.80476 -13.01686,13.01685 l 0,117.15171 c 0,7.21211 5.80475,13.01683 13.01686,13.01683 l 80.11479,0 c 7.21211,0 13.01686,-5.80472 13.01686,-13.01683 l 0,-97.51855 -30.70828,-32.65001 -62.42337,0 z"
       style="fill:#00ced1;fill-opacity:1;stroke:#000000;stroke-width:2.3013227;stroke-opacity:1"
       inkscape:connector-curvature="0" />
    <path
       inkscape:connector-curvature="0"
       id="path3795"
       d="m 289.2343,857.47101 0,19.63316 c 0,1.80304 0.34982,3.54753 1.00683,5.10605 0.65701,1.55853 1.62821,2.92273 2.80474,4.09924 1.17652,1.17652 2.5407,2.14773 4.09923,2.80473 1.55852,0.65703 3.30303,1.00683 5.10606,1.00683 l 17.69142,0 -30.70828,-32.65001 z"
       style="fill:#cccccc;stroke:#000000;stroke-width:2.3013227px;stroke-linecap:butt;stroke-linejoin:bevel;stroke-opacity:1" />
    <g
       id="g3785"
       transform="matrix(2.3013226,0,0,2.3013226,162.80539,781.88694)">
      <path
         id="path3787"
         d="m 25.8125,34.84375 c -3.133897,0 -5.65625,2.522353 -5.65625,5.65625 l 0,50.90625 c 0,3.133897 2.522353,5.65625 5.65625,5.65625 l 34.8125,0 c 3.133897,0 5.65625,-2.522353 5.65625,-5.65625 l 0,-42.375 -13.34375,-14.1875 -27.125,0 z"
         style="fill:#ccff00;fill-opacity:1;stroke:#000000;stroke-opacity:1"
         inkscape:connector-curvature="0" />
      <path
         inkscape:connector-curvature="0"
         id="path3789"
         d="m 52.9375,34.84375 0,8.53125 c 0,0.783474 0.152006,1.541519 0.4375,2.21875 0.285494,0.677231 0.707512,1.270012 1.21875,1.78125 0.511238,0.511238 1.104019,0.933256 1.78125,1.21875 0.677231,0.285494 1.435276,0.4375 2.21875,0.4375 l 7.6875,0 -13.34375,-14.1875 z"
         style="fill:#cccccc;stroke:#000000;stroke-width:1px;stroke-linecap:butt;stroke-linejoin:bevel;stroke-opacity:1" />
    </g>
    <g
       transform="matrix(2.3013226,0,0,2.3013226,173.66191,761.26675)"
       id="g3964">
      <g
         transform="translate(-6.7175145,10.960155)"
         id="g3781">
        <path
           inkscape:connector-curvature="0"
           id="rect2982"
           d="m 25.8125,34.84375 c -3.133897,0 -5.65625,2.522353 -5.65625,5.65625 l 0,50.90625 c 0,3.133897 2.522353,5.65625 5.65625,5.65625 l 34.8125,0 c 3.133897,0 5.65625,-2.522353 5.65625,-5.65625 l 0,-42.375 -13.34375,-14.1875 -27.125,0 z"
           style="fill:#ff5555;fill-opacity:1;stroke:#000000;stroke-opacity:1" />
        <path
           inkscape:connector-curvature="0"
           id="path3772"
           d="m 52.9375,34.84375 0,8.53125 c 0,0.783474 0.152006,1.541519 0.4375,2.21875 0.285494,0.677231 0.707512,1.270012 1.21875,1.78125 0.511238,0.511238 1.104019,0.933256 1.78125,1.21875 0.677231,0.285494 1.435276,0.4375 2.21875,0.4375 l 7.6875,0 -13.34375,-14.1875 z"
           style="fill:#cccccc;stroke:#000000;stroke-width:1px;stroke-linecap:butt;stroke-linejoin:bevel;stroke-opacity:1" />
      </g>
      <path
         inkscape:connector-curvature="0"
         id="path3805"
         d="M 100.58594,55.344775 90.612818,65.11046 93.003639,78.862397 80.634056,72.395155 68.29399,78.918543 70.622293,65.155882 60.604892,55.43562 l 13.808553,-2.038549 6.148971,-12.53084 6.205853,12.502768 z"
         inkscape:transform-center-y="-1.5252105"
         inkscape:transform-center-x="0.011293722"
         style="fill:#ffff00;fill-opacity:1;stroke:none;filter:url(#filter3941)"
         transform="matrix(0.76523537,0,0,0.76523537,-24.773851,30.453597)" />
      <path
         transform="matrix(0.71919029,0,0,0.71919029,-21.062149,33.30312)"
         style="fill:#fffd76;fill-opacity:1;stroke:none;filter:url(#filter3941)"
         inkscape:transform-center-x="0.010614099"
         inkscape:transform-center-y="-1.4334373"
         d="M 100.58594,55.344775 90.612818,65.11046 93.003639,78.862397 80.634056,72.395155 68.29399,78.918543 70.622293,65.155882 60.604892,55.43562 l 13.808553,-2.038549 6.148971,-12.53084 6.205853,12.502768 z"
         id="path4614"
         inkscape:connector-curvature="0" />
      <g
         id="g4631"
         transform="matrix(0.25583772,0,0,0.27403373,112.79142,80.758307)">
        <rect
           ry="5.6568542"
           y="16.630682"
           x="-137.60506"
           height="93.69165"
           width="81.109306"
           id="rect4620"
           style="fill:#808080;fill-opacity:1;stroke:#000000;stroke-opacity:1" />
        <path
           sodipodi:nodetypes="sssaccsss"
           inkscape:connector-curvature="0"
           id="rect4622"
           d="m -139.65359,4.0093828 85.206369,0 c 3.133897,0 5.61266,2.5229574 5.61266,5.6568544 0,0 0,0.7071068 0,1.0606598 0,1.885619 0.06529,1.546797 0,5.656855 l -96.122329,0 c 0,-7.4247768 0,-2.522957 0,-5.656855 l 0,-1.0606598 c 0,-3.133897 2.16941,-5.6568544 5.3033,-5.6568544 z"
           style="fill:#808080;fill-opacity:1;stroke:#000000;stroke-width:1;stroke-opacity:1" />
        <rect
           ry="0"
           y="25.115963"
           x="-127.74368"
           height="73.892654"
           width="10.253048"
           id="rect4624"
           style="fill:#fffafa;fill-opacity:1;stroke:#000000;stroke-opacity:1" />
        <rect
           style="fill:#fffafa;fill-opacity:1;stroke:#000000;stroke-opacity:1"
           id="rect4626"
           width="10.253048"
           height="73.892654"
           x="-102.52007"
           y="25.115963"
           ry="0" />
        <rect
           ry="0"
           y="25.115963"
           x="-77.296455"
           height="73.892654"
           width="10.253048"
           id="rect4628"
           style="fill:#fffafa;fill-opacity:1;stroke:#000000;stroke-opacity:1" />
      </g>
    </g>
    <g
       id="g3970"
       transform="matrix(1.2791643,0.23136149,-0.23136149,1.2791643,352.03324,732.32676)">
      <g
         id="g3972"
         transform="translate(-6.7175145,10.960155)">
        <path
           style="fill:#ff5555;fill-opacity:1;stroke:#000000;stroke-opacity:1"
           d="m 25.8125,34.84375 c -3.133897,0 -5.65625,2.522353 -5.65625,5.65625 l 0,50.90625 c 0,3.133897 2.522353,5.65625 5.65625,5.65625 l 34.8125,0 c 3.133897,0 5.65625,-2.522353 5.65625,-5.65625 l 0,-42.375 -13.34375,-14.1875 -27.125,0 z"
           id="path3974"
           inkscape:connector-curvature="0" />
        <path
           style="fill:#cccccc;stroke:#000000;stroke-width:1px;stroke-linecap:butt;stroke-linejoin:bevel;stroke-opacity:1"
           d="m 52.9375,34.84375 0,8.53125 c 0,0.783474 0.152006,1.541519 0.4375,2.21875 0.285494,0.677231 0.707512,1.270012 1.21875,1.78125 0.511238,0.511238 1.104019,0.933256 1.78125,1.21875 0.677231,0.285494 1.435276,0.4375 2.21875,0.4375 l 7.6875,0 -13.34375,-14.1875 z"
           id="path3976"
           inkscape:connector-curvature="0" />
      </g>
      <path
         transform="matrix(0.76523537,0,0,0.76523537,-24.773851,30.453597)"
         style="fill:#ffff00;fill-opacity:1;stroke:none;filter:url(#filter3941)"
         inkscape:transform-center-x="0.011293722"
         inkscape:transform-center-y="-1.5252105"
         d="M 100.58594,55.344775 90.612818,65.11046 93.003639,78.862397 80.634056,72.395155 68.29399,78.918543 70.622293,65.155882 60.604892,55.43562 l 13.808553,-2.038549 6.148971,-12.53084 6.205853,12.502768 z"
         id="path3978"
         inkscape:connector-curvature="0" />
    </g>
    <path
       style="fill:none;stroke:#000000;stroke-width:1.84105814;stroke-linecap:butt;stroke-linejoin:miter;stroke-miterlimit:4;stroke-opacity:1;stroke-dasharray:none;marker-end:url(#Arrow1Mend)"
       d="m 375.85156,887.56404 0,48.81842"
       id="path3980"
       inkscape:connector-curvature="0" />
    <g
       id="g4138"
       transform="matrix(1.4437958,0,0,1.4437958,-12.177992,756.80216)">
      <path
         inkscape:connector-curvature="0"
         transform="matrix(1.3229236,0.23063546,-0.23063546,1.3229236,-49.075184,-60.160259)"
         style="fill:#ff9bff;fill-opacity:1;stroke:#6600cc;stroke-width:2.49178934;stroke-miterlimit:4;stroke-opacity:1;stroke-dasharray:none;filter:url(#filter3941-1)"
         inkscape:transform-center-x="-1.3181365"
         inkscape:transform-center-y="-0.28813939"
         d="M 100.58594,55.344775 90.612818,65.11046 93.003639,78.862397 80.634056,72.395155 68.29399,78.918543 70.622293,65.155882 60.604892,55.43562 l 13.808553,-2.038549 6.148971,-12.53084 6.205853,12.502768 z"
         id="path3805-4" />
      <path
         id="path3354"
         d="M 100.58594,55.344775 90.612818,65.11046 93.003639,78.862397 80.634056,72.395155 68.29399,78.918543 70.622293,65.155882 60.604892,55.43562 l 13.808553,-2.038549 6.148971,-12.53084 6.205853,12.502768 z"
         inkscape:transform-center-y="-2.2740387"
         inkscape:transform-center-x="1.8332559"
         style="fill:#ff5555;fill-opacity:1;stroke:#c83737;stroke-width:2.49178934;stroke-miterlimit:4;stroke-opacity:1;stroke-dasharray:none;filter:url(#filter3941-1)"
         transform="matrix(-0.97423785,0.92421862,-0.92421862,-0.97423785,227.3845,36.732718)"
         inkscape:connector-curvature="0" />
      <path
         inkscape:connector-curvature="0"
         transform="matrix(0.09610011,1.3394342,-1.3394342,0.09610011,133.46688,-23.318233)"
         style="fill:#aaccee;fill-opacity:1;stroke:#336699;stroke-width:2.49178934;stroke-miterlimit:4;stroke-opacity:1;stroke-dasharray:none;filter:url(#filter3941-1)"
         inkscape:transform-center-x="-1.1032788"
         inkscape:transform-center-y="-0.56697076"
         d="M 100.58594,55.344775 90.612818,65.11046 93.003639,78.862397 80.634056,72.395155 68.29399,78.918543 70.622293,65.155882 60.604892,55.43562 l 13.808553,-2.038549 6.148971,-12.53084 6.205853,12.502768 z"
         id="path3356" />
    </g>
  </g>
</svg>
